<?xml version="1.0" encoding="UTF-8"?>
<svg xmlns="http://www.w3.org/2000/svg" viewBox="0 0 512 512" width="512" height="512">
<path d="M144.48 118.15C150.25 123.66 156.02 129.17 161.78 134.68C160.07 136.31 158.35 137.94 156.64 139.57C156.67 140.12 156.71 140.68 156.74 141.23C153.91 144.06 151.08 146.9 148.25 149.73C147.62 149.77 146.98 149.82 146.35 149.86C144.09 151.81 141.83 153.76 139.57 155.7C136.92 155.7 134.27 155.7 131.62 155.7C130.4 153.38 126.65 152.63 125.41 150.22C124.3 148.05 122.92 145.07 123.46 142.39C123.74 140.98 124.38 140.28 124.38 138.64C131.08 131.81 137.78 124.98 144.48 118.15ZM225.05 198.25C238.22 211.33 251.4 224.41 264.57 237.48C263.34 242.01 250.24 250.36 246.08 252.39C243.27 253.76 238.12 254.01 236.36 256.7C234.02 257.32 231.69 257.95 229.35 258.57C227.02 258.42 225.57 256.2 223.97 254.6C220.39 251.01 216.8 247.43 213.22 243.84C215.16 242.82 220.58 238.41 221.53 236.26C222 235.2 221.82 234.51 222.57 233.56C229.05 232.26 234.3 235.39 239.4 230.28C239.4 218.36 230.78 223.98 222.57 222.33C220.98 220.29 220.13 217.48 218.04 215.64C209.6 208.2 192.08 206.66 183.06 213.68C176.43 207.06 169.81 200.44 163.19 193.81C172.68 191.91 184.06 191.97 193.83 193.56C199.6 194.51 205.15 193.55 210.73 195.36C213.82 196.36 223.03 196.03 225.05 198.25ZM214 227.24C214 227.71 214 228.18 214 228.65C211.35 228.94 209.19 235.33 205.03 235.66C200.44 230.91 195.84 226.15 191.24 221.4C194 219.25 201.68 217.72 204.1 220.7C206.59 220.7 209.65 222.32 211.35 224.2C212.41 225.38 212.22 227.05 214 227.24ZM267.46 250.86C267.46 262.45 266.98 270.29 256.25 276.59C254.13 277.83 252.42 280.35 249.92 280.55C245.64 276.26 241.35 271.98 237.06 267.69C238.85 264.97 245.75 265.81 247.58 262.31C252.43 262.26 258.6 256.47 262.91 254.26C264.54 253.43 265.76 251.03 267.46 250.86ZM115.96 284.79C113.28 284.66 110.35 282.6 108.12 281.15C101.42 276.82 91.78 270.43 91.96 261.36C93.12 261.04 98.3 266.85 99.6 268.15C102.34 270.89 112.01 281.83 114.59 283.05C116.43 283.92 119.11 283.09 121.1 283.59C119.46 283.67 117.83 283.74 116.19 283.82C116.12 284.14 116.04 284.46 115.96 284.79ZM0.08 438.54C0.08 382.31 0.08 326.07 0.08 269.84C2.67 268.02 2.46 263.97 7.72 262.15C11.42 260.86 16.48 261.67 20.34 261.66C27.98 261.65 35.61 261.67 43.25 261.67C48.89 261.67 54.04 261.29 58.03 265.83C61.88 270.19 60.64 277.76 60.64 283.12C60.65 297.3 60.59 311.49 60.63 325.67C60.71 352.01 60.61 378.35 60.61 404.69C60.61 412.33 60.6 419.96 60.6 427.6C60.6 431.4 61.19 436.03 59.78 439.65C58.3 443.45 54.56 445.79 50.82 446.83C46.89 447.93 41.71 447.07 37.64 447.07C29.36 447.07 14.13 448.69 6.84 445.94C2.54 444.31 2.35 440.14 0.08 438.54ZM93.28 280.3C94.77 281.71 96.25 283.12 97.74 284.52C94.8 285.49 92.88 283.15 93.28 280.3ZM323.16 296.52C325.35 298.81 327.53 301.1 329.71 303.38C326.86 303.56 324.06 301.64 321.37 300.74C316.28 299.04 311.33 295.96 306.6 293.54C304.7 292.57 303.14 290.18 301.5 288.82C299.28 286.98 297.08 285.6 296.45 282.65C298.99 283.5 300.64 286.08 303.01 287.31C308.43 290.15 317.25 295.58 323.16 296.52ZM130.45 293.11C129.25 294.27 127.08 293.82 125.32 293.87C146.52 315.07 167.71 336.26 188.91 357.46C194.05 362.6 199.2 367.75 204.34 372.89C205.84 374.39 209.55 376.59 209.32 378.36C206.86 377.43 204.79 375.61 202.57 374.21C195.92 370.01 189.41 365.23 182.53 361.43C179.8 359.93 173.57 355.81 172.86 361.91C172.76 362.78 172.83 363.94 173.25 364.73C174.35 366.8 177.79 367.86 179.62 369.1C183.16 371.49 186.9 373.69 190.46 376.06C207.91 387.68 226.91 397.97 243.66 410.41C243.56 410.92 243.47 411.42 243.38 411.93C262.16 430.73 280.94 449.53 299.72 468.33C277.58 469.17 255.25 468.36 233.09 468.36C225.61 468.36 218.13 468.32 210.64 468.35C207.23 468.36 203.22 468.94 199.89 468.09C194.38 466.69 188.71 463.4 183.43 461.17C172.1 456.4 160.51 452.1 149.22 447.23C129.79 438.86 109.78 431.72 90.45 423.18C83.41 420.08 75.88 418.05 69.13 414.51C69.08 374.12 69.02 333.73 68.97 293.35C89.46 293.27 109.96 293.19 130.45 293.11ZM371.26 319.94C371.26 320.05 371.26 320.16 371.26 320.27C362.44 321.72 353.81 318.62 345.27 318.66C350.54 323.92 355.8 329.19 361.07 334.46C362.87 336.25 365.32 339.92 367.62 340.97C369.79 341.96 376.28 341.53 378.97 341.67C387.76 342.15 409.73 341.84 417.08 338.29C411.08 332.26 405.08 326.23 399.08 320.2C398.38 320.07 397.68 319.94 396.98 319.81C399.16 319.56 401.34 319.31 403.52 319.05C403.52 319.39 403.52 319.72 403.52 320.06C408.78 325.32 416.44 335.14 422.69 338.04C417.25 341.04 401.52 341.75 394.87 342.28C368.19 344.42 339.85 341.51 315.68 330.34C307.05 326.36 295.62 319.8 293 309.77C292.36 307.31 292.63 304.34 292.62 301.82C292.62 299.45 292.17 296.55 293.03 294.34C295.36 295 297.92 298.2 299.94 299.73C303.6 302.52 307.85 304.98 312.03 306.86C330.13 315 351.13 319.81 371.26 319.94ZM344.61 347.97C344.84 348.41 345.07 348.84 345.31 349.28C350.55 349.28 355.54 350.75 360.75 351.61C366.91 352.61 373.24 350.75 379.27 352.63C380.45 353.87 382.61 356.97 384.25 357.44C388.7 358.7 396.97 357.35 401.42 356.75C411.02 355.45 420.81 354.86 429.71 351.39C428.38 349.8 427.06 348.21 425.73 346.62C424.56 346.75 423.39 346.89 422.22 347.03C427.99 345.35 433.76 343.67 439.53 342C439.21 342.48 438.9 342.96 438.59 343.44C436.17 343.08 435.02 344.75 433.11 345.41C432.51 345.62 431.12 345.3 430.41 345.4C430.43 347.74 432.45 348.68 433.68 350.63C434.63 349.85 434.68 349.77 435.93 350.24C434.25 352 429.56 352.68 427.13 353.15C420.41 354.46 413.92 356.51 407.01 357.1C401.43 357.57 395.83 358.62 390.2 358.94C367.76 360.22 343.04 357.57 322.42 349.21C313.83 345.73 305.31 341.94 298.78 335.03C296.44 332.57 293.18 328.89 293.41 325.36C296.63 327.76 299.63 330.43 302.94 332.7C315.4 341.28 330.31 344.15 344.61 347.97ZM394.24 367.6C400.47 373.93 406.7 380.27 412.94 386.61C408.03 386.92 402.62 387.29 398.13 388.54C394.95 389.44 390.24 388.56 386.92 388.56C381.89 388.56 368.05 389.67 364.03 388.54C361.71 387.9 359.73 387.62 357 387.62C348.66 379.29 340.32 370.95 331.98 362.61C334.4 362.84 336.81 363.08 339.23 363.31C339.7 363.78 340.16 364.24 340.63 364.71C344.28 364.71 348.07 365.64 351.4 366.57C353.42 367.13 355.85 366.18 357.92 366.6C358.68 366.75 359.06 367.35 359.82 367.5C363.71 368.28 368.05 366.75 371.95 367.53C372.7 367.68 373.09 368.29 373.84 368.44C380.69 369.81 387.64 367.18 394.24 367.6ZM26.99 388.28C23.01 389.17 18.87 390.5 15.69 393.27C-2.72 409.32 11.23 438.13 35.3 433.87C57.43 429.96 59.17 397.87 38.64 389.86C35.1 388.48 30.88 387.41 26.99 388.28ZM423.68 396.59C435.5 408.53 447.32 420.48 459.14 432.43C455.44 432.74 452.47 435.48 449.02 436.63C445.9 437.67 442.78 438.36 439.86 439.63C437.31 440.73 434.37 442.74 431.72 443.65C429.53 444.4 427.09 444.76 424.9 445.71C422.62 446.69 420.51 448.23 417.78 448.41C406.25 436.88 394.72 425.34 383.18 413.81C385.71 411.28 391.66 409.65 395.25 408.58C396.56 408.19 397.55 406.93 398.71 406.43C400.09 405.84 401.81 405.88 403.19 405.29C407.5 403.42 411.71 401.28 416.01 399.42C418.57 398.31 421.2 397.87 423.68 396.59ZM390.9 398.61C385.52 400.87 380.14 403.13 374.77 405.39C372.51 403.13 370.25 400.87 367.99 398.61C370.57 398.09 375.43 397.67 378.02 398.39C378.85 398.62 378.96 399.19 379.91 399.31C383.73 399.81 386.88 397.81 390.9 398.61Z" fill="#6c77fe" fill-rule="evenodd" stroke="#6c77fe" stroke-width="0.25" stroke-linejoin="round"/>
<path d="M199.8 98.21C198 97.34 192.12 105.4 189.8 106.37C184.19 100.76 178.57 95.15 172.96 89.54C175.97 86.42 178.98 83.31 181.99 80.19C181.95 79.75 181.9 79.31 181.86 78.88C182.58 73.06 170.9 65.04 167.16 60.5C171.55 58.39 176.78 58.01 181.46 56.81C192.48 54 203.55 51.43 214.61 48.85C219.58 47.69 231.17 43.49 235.61 44.19C230.09 66.76 224.58 89.34 219.06 111.92C212.92 109.26 207.25 95.6 199.8 98.21ZM371.56 49.77C398.47 48.25 427.47 51.81 451.31 64.65C461.38 70.08 473.38 80.79 467.78 93.5C461.55 107.61 441.06 114.35 427.59 118.23C395.57 127.46 358.96 126.16 327.39 116.17C316.43 112.7 303.08 107.19 296.23 97.25C288.26 85.7 295.7 74.36 305.82 67.59C324.93 54.81 348.97 51.05 371.56 49.77ZM325.9 89.94C330.16 90 334.41 90.06 338.66 90.12C339.86 91.24 340.3 92.94 341.21 94.32C343.07 97.15 346.14 99.42 349.14 100.88C359.47 105.91 374.37 104.34 381.81 94.95C385.04 90.87 383.65 87.76 385.29 83.99C388.57 76.43 399.49 74.96 406.5 77.22C414.02 79.63 418.66 88.03 410.17 92.87C406.27 95.09 400.81 94.17 397.63 96.26C395.63 97.58 395.4 100.85 397.16 102.46C401.97 106.85 415.93 99.97 419.48 95.67C420.84 94.03 421.71 90.67 423.63 90.07C427.37 90.02 431.11 89.98 434.85 89.94C438.84 89.85 441.66 84.48 437.34 82.27C433.49 80.3 427.18 82.5 422.96 81.59C419.17 77.6 419.52 74.47 413.42 71.26C403.38 65.99 387.94 66.89 380.38 76.21C376.83 80.59 378.12 84.63 375.86 89C372.6 95.28 362.62 96.2 356.55 94.88C348.94 93.22 342.63 84.62 351.1 79.22C355.34 76.52 360.57 77.53 363.88 75.64C366.11 74.37 366.44 71.26 364.75 69.41C362.52 66.98 358.33 68.19 355.59 68.85C346.41 71.06 343.84 74.19 338.76 81.67C334.47 82.27 328.66 80.55 324.62 82.13C320.4 83.77 322.22 89.19 325.9 89.94ZM161.78 134.68C156.02 129.17 150.25 123.66 144.48 118.15C153.13 109.47 161.78 100.79 170.43 92.11C176.12 97.8 181.81 103.49 187.5 109.18C178.93 117.68 170.35 126.18 161.78 134.68ZM293.41 106.5C297.89 110.14 302.05 113.91 307.19 116.65C332.29 130.06 361.96 133.14 390.2 132.07C409.24 131.35 428.46 128.13 446 120.81C451.67 118.44 457.16 115.32 462.14 111.72C464.44 110.06 466.36 107.79 468.75 106.33C469.4 108.9 469.13 111.67 469.13 114.32C469.13 116.64 469.46 119.4 468.77 121.64C464.73 134.95 449.16 141.91 437.23 146.16C402.87 158.41 357.61 158.67 323.37 145.84C309.88 140.79 292.77 132.22 292.69 115.73C292.68 113.11 291.86 108.59 293.41 106.5ZM293.41 137.98C296.68 139.3 299.48 142.78 302.52 144.71C308.34 148.4 314.6 151.46 321.02 153.84C352.99 165.7 394.95 166.51 427.88 157.81C436.9 155.44 446.02 152.26 454.2 147.72C457.11 146.11 466.13 138.57 468 138.17C468.06 142.43 464.04 146.22 461.13 149.01C453.01 156.81 441.47 161.16 430.92 164.22C396.59 174.15 358.55 173.51 324.72 162.21C315.26 159.05 294.64 149.54 293.41 137.98ZM367.88 179.05C371.97 179.21 376.06 179.36 380.14 179.51C380.61 179.51 381.08 179.51 381.55 179.51C385.3 179.36 389.05 179.2 392.8 179.05C412.44 178.04 432.6 174.25 450.33 165.76C454.37 163.83 458.41 161.44 462.02 158.78C464.3 157.1 466.33 154.68 468.75 153.32C469.44 155.76 469.11 158.54 469.11 161.08C469.11 163.43 469.43 166.18 468.8 168.46C464.3 184.7 439.63 193.19 425.25 196.84C421.08 197.9 416.87 198.47 412.67 199.3C406.3 200.56 398.78 202.06 392.3 201.56C388.71 201.69 385.13 201.83 381.55 201.96C381.08 201.96 380.61 201.96 380.14 201.96C376.56 201.81 372.97 201.66 369.39 201.51C362.97 202.15 355.34 200.5 349.03 199.26C333.43 196.2 317.97 192.48 304.77 183.15C296.07 177 292.73 171.32 292.73 160.61C292.73 158.37 292.28 155.64 293.18 153.6C295.43 154.46 297.31 157.22 299.38 158.6C303.24 161.18 307.15 163.77 311.34 165.78C328.82 174.16 348.51 177.73 367.88 179.05ZM394.17 217.41C390.4 217.59 386.64 217.76 382.87 217.94C381.38 217.93 379.9 217.91 378.42 217.9C374.78 217.72 371.15 217.54 367.52 217.37C361.26 217.99 354.27 216.2 348.11 215.15C332.91 212.58 315.64 208.24 303.46 198.18C301.42 195.79 299.38 193.4 297.35 191.01C297.16 191.22 296.98 191.44 296.79 191.65C296.52 191.23 296.24 190.82 295.97 190.4C296.16 190.29 296.34 190.18 296.53 190.07C296.24 189.6 295.94 189.14 295.65 188.67C296.13 188.42 296.62 188.16 297.1 187.91C300.73 189.61 304.01 192.8 307.59 194.79C313.61 198.13 320.26 200.61 326.73 202.77C360.99 214.21 412.59 213.15 445.81 198.72C450.99 196.47 455.97 193.8 460.68 190.65C463.17 188.99 465.29 186.62 467.81 185.11C468.86 190.84 458.29 198.53 453.96 201.27C441.91 208.88 427.57 212.93 413.59 215.2C407.36 216.21 400.51 217.91 394.17 217.41ZM225.05 198.25C228.19 199.18 231.4 199.7 234.4 200.68C244.11 203.83 254.66 208.86 261.93 217.1C264.98 220.56 268.47 225.58 267.44 230.74C266.95 233.2 265.65 235.33 264.57 237.48C251.4 224.41 238.22 211.33 225.05 198.25ZM354.95 247.06C355.91 246.92 356.87 246.79 357.83 246.65C355.09 246.39 344.14 243.91 342.74 244.97C338.68 243.98 334.63 243 330.58 242.01C330.6 241.69 330.62 241.36 330.64 241.04C327.56 239.25 323.91 238.95 320.76 237.23C317.1 235.24 304.95 221.53 301.1 217.68C299.18 215.76 294.94 212.92 293.94 210.41C293.14 208.43 293.61 204.5 293.87 202.42C295.04 203.36 296.73 205.35 298.04 204.73C298.28 204.86 298.52 204.98 298.76 205.1C298.69 205.4 298.62 205.7 298.55 206C300.44 207.4 305.26 211.89 307.36 210.84C308.71 211.5 310.06 212.16 311.41 212.82C311.49 213.13 311.56 213.45 311.64 213.76C313.67 214.68 315.69 215.6 317.72 216.52C317.99 216.35 318.26 216.17 318.52 215.99C322.31 216.57 326.21 218.61 329.9 219.75C335.69 221.53 341.79 222.64 347.74 223.78C374.46 228.91 409.18 226.96 435.04 218.76C443.34 216.13 451.76 212.59 459.1 207.77C462.43 205.59 465.37 202.06 468.75 200.26C469.48 202.75 469.1 205.71 469.1 208.31C469.09 223.25 458.98 230.48 446.4 236.24C420.65 248.04 382.98 252.53 354.95 247.06ZM292.94 200.99C292.95 205.24 292.97 209.49 292.98 213.74C292.97 209.49 292.95 205.24 292.94 200.99ZM310.71 232.85C305.43 229.55 295.1 222.96 294.58 216.26C299.95 221.79 305.33 227.32 310.71 232.85ZM389.96 264.61C388.38 263.73 386.39 264.41 384.58 264.44C381.4 264.49 368.68 262.89 366.97 264.24C362.64 263.81 358.31 263.39 353.97 262.96C354.74 262.82 355.5 262.68 356.26 262.55C352.91 262.31 346.7 261.34 343.67 260.14C341.4 259.24 338.82 255.4 337.08 253.66C338.42 253.96 339.76 254.25 341.1 254.55C341.65 254.31 342.19 254.08 342.74 253.84C350.99 254.89 359.24 255.94 367.49 256.98C366.67 257.12 365.86 257.26 365.05 257.4C370.1 257.66 387.57 259.35 391.34 257.1C410.83 255.24 430.01 252.8 447.95 244.75C452.79 242.58 457.6 239.89 461.91 236.75C463.89 235.31 465.72 233.22 467.81 232.09C469.1 237.53 457.89 245.74 453.81 248.29C439.83 256.98 423.22 260.96 407.03 263.11C401.86 263.8 395.05 265.57 389.96 264.61ZM320.87 247.81C321.15 247.86 321.42 247.91 321.69 247.96C321.93 248.38 322.16 248.8 322.4 249.22C324.9 250.15 328.55 250.42 330.73 252.11C333.05 253.92 334.39 256.91 337.13 258.34C336.19 258.56 335.25 258.78 334.32 259.01C331.05 258.02 327.77 257.03 324.5 256.04C324.5 255.72 324.5 255.39 324.5 255.06C319.75 252.69 314.46 251.53 309.87 248.65C306.84 246.75 304.2 244.29 301.5 242.06C299.76 240.62 296.36 238 296.68 235.66C302.7 238.67 307.23 243.03 313.89 245.57C315.8 246.3 318.98 248.85 320.87 247.81ZM396.51 295.06C393.34 292.46 382.14 296.12 377.8 294.28C375.58 293.34 373.18 289.76 371.47 288.05C366.4 282.98 361.33 277.91 356.25 272.83C357.71 272.83 358.78 273.57 360.27 273.66C367.53 274.11 374.98 274.48 382.25 274.3C385.05 274.23 390.05 274.64 392.3 273.07C412.17 271.56 432.31 268.44 450.28 259.72C454.32 257.76 458.37 255.42 461.98 252.72C464.26 251.02 466.34 248.65 468.75 247.27C469.34 249.61 469.08 252.17 469.08 254.6C469.08 258.25 469.22 261.7 467.77 265.1C464.86 271.92 458.22 276.64 452.04 280.22C440.03 287.19 426.31 290.99 412.64 293.15C407.29 293.99 401.97 295.07 396.51 295.06ZM334.32 267.97C337.6 268.71 340.87 269.44 344.15 270.17C345.2 271.91 348.09 271.66 349.98 271.66C357.7 279.22 365.41 286.78 373.13 294.34C369.86 294.55 366.58 294.77 363.31 294.98C363 294.97 362.69 294.96 362.37 294.96C361.98 294.52 361.6 294.08 361.21 293.64C353.43 293.64 348.24 292.18 341.01 290.45C321.4 285.77 288.47 276.25 293.87 249.22C303.24 256.82 312.99 261.94 324.18 265.67C326.63 266.49 331.82 269.38 334.32 267.97ZM407.26 309.98C404.27 307.58 397.8 311.11 394.01 310.24C392.3 309.85 390.22 306.8 388.99 305.56C389.47 305.05 389.95 304.54 390.43 304.03C391.83 304 393.23 303.97 394.64 303.94C396.39 305.47 401.89 304.84 403.52 303.06C403.99 303.03 404.46 303.01 404.92 302.99C406.9 304.55 415.4 301.92 418.25 301.5C418.4 301.38 418.24 301.03 418.07 300.95C428.91 297.73 439.68 295.76 449.97 290.78C454.17 288.74 458.16 286.3 462.02 283.63C464.03 282.23 465.73 280.29 467.81 279.08C468.62 284.54 460.79 290.17 456.97 293.09C446.07 301.41 420.87 309.77 407.26 309.98ZM441.86 332.02C441.63 331.85 441.4 331.68 441.16 331.51C438.67 332.45 436.17 333.4 433.68 334.34C433.76 334.55 433.84 334.76 433.93 334.97C430.18 335.99 426.44 337.02 422.69 338.04C416.44 335.14 408.78 325.32 403.52 320.06C403.52 319.72 403.52 319.39 403.52 319.05C408.35 318.37 413.18 317.69 418.02 317.01C420.01 318.54 425.18 316.04 427.6 315.45C427.51 315.29 427.42 315.13 427.33 314.96C436.33 311.4 445.46 309.35 454.1 304.69C459.37 301.86 464.21 296.61 468.75 294.23C469.42 296.75 469.06 299.68 469.06 302.29C469.06 315.8 461.3 321.83 450.38 328.08C447.8 329.56 444.79 331.44 441.86 332.02ZM323.16 296.52C326.27 296.6 333.33 299.7 336.98 300.57C339.89 301.26 342.92 301.94 345.79 302.51C347.14 302.78 348.62 302.27 349.97 302.54C352.43 303.03 355.61 304.42 358.17 303.06C358.32 303.07 358.48 303.07 358.63 303.07C358.79 303.43 358.95 303.8 359.1 304.16C362.53 304.11 365.96 304.06 369.39 304.01C370.17 304.02 370.95 304.03 371.73 304.04C375.36 305.88 379.5 305.33 383.65 305.33C385.44 306.97 387.23 308.6 389.03 310.24C384.81 311.08 366.29 311.29 362.16 310.46C361.4 310.31 361.02 309.7 360.26 309.55C358.31 309.16 356.15 309.91 354.21 309.52C351.64 309.01 348.79 308.19 346.23 307.68C345.2 307.48 344 307.94 342.98 307.65C338.81 306.48 334.1 304.1 329.71 303.38C327.53 301.1 325.35 298.81 323.16 296.52ZM371.26 320.27C374.13 322.27 387.71 321.71 390.9 320.03C392.92 319.96 394.95 319.89 396.98 319.81C397.68 319.94 398.38 320.07 399.08 320.2C405.08 326.23 411.08 332.26 417.08 338.29C409.73 341.84 387.76 342.15 378.97 341.67C376.28 341.53 369.79 341.96 367.62 340.97C365.32 339.92 362.87 336.25 361.07 334.46C355.8 329.19 350.54 323.92 345.27 318.66C353.81 318.62 362.44 321.72 371.26 320.27ZM448.41 345.08C447.79 344.65 438.26 348.21 436.68 349.05C436.86 349.34 437.04 349.64 437.22 349.93C436.79 350.03 436.36 350.14 435.93 350.24C434.68 349.77 434.63 349.85 433.68 350.63C432.45 348.68 430.43 347.74 430.41 345.4C431.12 345.3 432.51 345.62 433.11 345.41C435.02 344.75 436.17 343.08 438.59 343.44C438.9 342.96 439.21 342.48 439.53 342C441.51 341.3 443.5 340.6 445.48 339.91C445.76 340.06 446.03 340.22 446.31 340.38C448.18 339.41 450.05 338.45 451.92 337.49C451.84 337.31 451.77 337.14 451.69 336.97C457.07 333.34 462.44 329.71 467.81 326.08C468.23 328.32 466.4 330.73 465.03 332.49C461.15 337.44 454.53 343.3 448.41 345.08ZM465.84 362.32C464.61 361.75 463.98 363.54 463.06 364.57C460.96 366.93 457.4 370.28 454.25 370.83C450.29 366.69 446.34 362.54 442.38 358.4C443.77 357.04 447.16 357.14 447.47 354.95C451.86 352.51 456.35 350.42 460.61 347.67C463.49 345.81 465.83 342.89 468.75 341.24C470.32 348.14 469.35 356.28 465.84 362.32ZM422.22 347.03C423.39 346.89 424.56 346.75 425.73 346.62C427.06 348.21 428.38 349.8 429.71 351.39C420.81 354.86 411.02 355.45 401.42 356.75C396.97 357.35 388.7 358.7 384.25 357.44C382.61 356.97 380.45 353.87 379.27 352.63C387.23 352.07 395.45 351.93 403.3 350.7C405.33 350.38 409.71 351.19 410.61 349.21C414.48 348.48 418.35 347.76 422.22 347.03ZM441.99 378.84C441.79 378.95 441.59 379.05 441.4 379.16C440.85 379.02 440.3 378.88 439.76 378.74C438.7 380.29 435.96 380.14 434.24 380.7C430.44 381.93 417.8 386.51 414.51 385.29C413.99 385.73 413.46 386.17 412.94 386.61C406.7 380.27 400.47 373.93 394.24 367.6C401.33 367.09 408.44 366.94 415.36 365.56C416.33 365.36 417 364.61 417.87 364.33C418.88 364.01 420.02 364.43 421.04 364.23C422.91 363.86 424.95 363.05 426.75 362.46C427.62 362.18 428.6 362.6 429.46 362.36C432.22 361.59 434.93 360.21 437.89 359.57C442.49 364.17 447.08 368.76 451.68 373.36C449.64 374.38 442.3 377.34 441.99 378.84ZM490.02 372.22C496.89 373.18 503.54 376.07 507.81 381.78C509.24 383.69 510.73 389.07 511.92 390.02C511.92 392.94 511.92 395.86 511.92 398.78C511.71 398.9 511.51 399.01 511.3 399.13C510.18 401.84 509.06 404.54 507.95 407.25C507.16 407 501.06 414.16 498.71 414.98C487.23 403.6 475.75 392.22 464.27 380.84C465.29 380.22 466.32 379.61 467.35 378.99C467.11 378.69 466.88 378.39 466.65 378.1C467.85 377.68 469.04 377.26 470.24 376.84C471.47 377.6 480.04 373.66 482.78 373.41C482.23 373.25 481.69 373.1 481.14 372.95C481.71 372.88 482.28 372.81 482.85 372.74C483.21 372.79 483.58 372.84 483.95 372.89C486.13 372.89 488.31 372.89 490.49 372.89C490.34 372.67 490.18 372.44 490.02 372.22ZM459.14 432.43C447.32 420.48 435.5 408.53 423.68 396.59C435.74 391.57 447.8 386.56 459.86 381.55C471.63 393.47 483.4 405.39 495.17 417.32C483.16 422.35 471.15 427.39 459.14 432.43Z" fill="#15c0fc" fill-rule="evenodd" stroke="#15c0fc" stroke-width="0.25" stroke-linejoin="round"/>
<path d="M181.86 78.88C181.9 79.31 181.95 79.75 181.99 80.19C178.98 83.31 175.97 86.42 172.96 89.54C178.57 95.15 184.19 100.76 189.8 106.37C192.12 105.4 198 97.34 199.8 98.21C185.44 112.55 171.09 126.89 156.74 141.23C156.71 140.68 156.67 140.12 156.64 139.57C158.35 137.94 160.07 136.31 161.78 134.68C170.35 126.18 178.93 117.68 187.5 109.18C181.81 103.49 176.12 97.8 170.43 92.11C161.78 100.79 153.13 109.47 144.48 118.15C137.78 124.98 131.08 131.81 124.38 138.64C124.38 140.28 123.74 140.98 123.46 142.39C122.92 145.07 124.3 148.05 125.41 150.22C126.65 152.63 130.4 153.38 131.62 155.7C134.27 155.7 136.92 155.7 139.57 155.7C141.83 153.76 144.09 151.81 146.35 149.86C146.98 149.82 147.62 149.77 148.25 149.73C145.19 153.93 140.22 157.35 134.9 157.09C126.54 156.67 120.19 147.3 123.22 139.36C125.67 132.92 135.52 125.18 140.6 120.24C154.49 106.73 167.4 91.69 181.86 78.88ZM325.9 89.94C330.16 90 334.41 90.06 338.66 90.12C334.41 90.06 330.16 90 325.9 89.94ZM434.85 89.94C431.11 89.98 427.37 90.02 423.63 90.07C427.37 90.02 431.11 89.98 434.85 89.94ZM367.88 179.05C371.97 179.21 376.06 179.36 380.14 179.51C376.06 179.36 371.97 179.21 367.88 179.05ZM392.8 179.05C389.05 179.2 385.3 179.36 381.55 179.51C385.3 179.36 389.05 179.2 392.8 179.05ZM297.1 187.91C296.62 188.16 296.13 188.42 295.65 188.67C295.94 189.14 296.24 189.6 296.53 190.07C296.34 190.18 296.16 190.29 295.97 190.4C295.03 188.73 294.08 187.06 293.14 185.4C294.92 185.36 296.13 186.35 297.1 187.91ZM303.46 198.18C301.24 196.01 299.01 193.83 296.79 191.65C296.98 191.44 297.16 191.22 297.35 191.01C299.38 193.4 301.42 195.79 303.46 198.18ZM169.91 191.91C196.97 190.94 226.75 193.13 250.36 206.73C260.36 212.49 272.7 222.78 266.87 235.82C260.56 249.92 240.41 256.08 227.22 260.21C197.89 269.41 158.37 268.23 129.21 259.18C117.26 255.48 102.89 250.25 95.23 239.32C87.18 227.82 94.89 216.55 104.81 209.77C123.31 197.1 147.71 192.7 169.91 191.91ZM264.57 237.48C265.65 235.33 266.95 233.2 267.44 230.74C268.47 225.58 264.98 220.56 261.93 217.1C254.66 208.86 244.11 203.83 234.4 200.68C231.4 199.7 228.19 199.18 225.05 198.25C223.03 196.03 213.82 196.36 210.73 195.36C205.15 193.55 199.6 194.51 193.83 193.56C184.06 191.97 172.68 191.91 163.19 193.81C169.81 200.44 176.43 207.06 183.06 213.68C192.08 206.66 209.6 208.2 218.04 215.64C220.13 217.48 220.98 220.29 222.57 222.33C230.78 223.98 239.4 218.36 239.4 230.28C234.3 235.39 229.05 232.26 222.57 233.56C221.82 234.51 222 235.2 221.53 236.26C220.58 238.41 215.16 242.82 213.22 243.84C216.8 247.43 220.39 251.01 223.97 254.6C225.57 256.2 227.02 258.42 229.35 258.57C231.69 257.95 234.02 257.32 236.36 256.7C238.12 254.01 243.27 253.76 246.08 252.39C250.24 250.36 263.34 242.01 264.57 237.48ZM298.04 204.73C296.73 205.35 295.04 203.36 293.87 202.42C293.61 204.5 293.14 208.43 293.94 210.41C294.94 212.92 299.18 215.76 301.1 217.68C304.95 221.53 317.1 235.24 320.76 237.23C323.91 238.95 327.56 239.25 330.64 241.04C330.62 241.36 330.6 241.69 330.58 242.01C327.8 241.88 324.78 240.2 322.19 239.2C313.14 235.73 304.7 231.3 297.89 224.17C295.4 221.56 292.67 217.43 292.98 213.74C292.97 209.49 292.95 205.24 292.94 200.99C293.09 200.76 293.25 200.53 293.41 200.3C294.95 201.78 296.5 203.25 298.04 204.73ZM369.39 201.51C372.97 201.66 376.56 201.81 380.14 201.96C376.56 201.81 372.97 201.66 369.39 201.51ZM392.3 201.56C388.71 201.69 385.13 201.83 381.55 201.96C385.13 201.83 388.71 201.69 392.3 201.56ZM298.76 205.1C301.63 207.02 304.49 208.93 307.36 210.84C305.26 211.89 300.44 207.4 298.55 206C298.62 205.7 298.69 205.4 298.76 205.1ZM214 227.24C212.22 227.05 212.41 225.38 211.35 224.2C209.65 222.32 206.59 220.7 204.1 220.7C201.68 217.72 194 219.25 191.24 221.4C195.84 226.15 200.44 230.91 205.03 235.66C209.19 235.33 211.35 228.94 214 228.65C213.68 232.84 208.65 235.96 205.03 236.93C202.61 237.57 199.47 236.96 197.19 238.13C194.84 239.34 194.37 242.65 196.22 244.48C198.55 246.79 201.87 245.5 204.65 245.06C210.07 244.21 216.44 241.5 219.51 236.56C220.41 235.11 220.96 233.52 222 232.15C225.97 231.47 238.8 234.15 238.73 227.95C238.65 221.26 225.83 225.3 221.87 223.65C219.17 219.82 217.67 216.69 213.55 214.01C204.03 207.85 186.57 208.75 179.44 218.45C175.48 223.83 177.34 227.22 174.99 231.24C171.33 237.49 161.38 238.57 155.01 236.93C147.36 234.97 142.11 226.29 150.39 221.21C154.5 218.69 159.58 219.7 163.14 217.61C165.33 216.32 165.43 213.16 163.75 211.46C161.55 209.22 158.09 210.38 155.47 210.91C145.15 213 143.68 215.67 138.05 223.74C133.98 224.79 121.3 221.62 121.23 227.95C121.17 234.01 133.72 231.75 137.7 232.01C140.2 234.77 141.09 238.34 144.41 240.62C154.4 247.45 170.71 248.15 179.51 238.64C185.2 232.5 182.1 225.28 188.67 221.1C194.86 217.15 213.21 217.23 214 227.24ZM311.41 212.82C313.78 213.88 316.15 214.94 318.52 215.99C318.26 216.17 317.99 216.35 317.72 216.52C315.69 215.6 313.67 214.68 311.64 213.76C311.56 213.45 311.49 213.13 311.41 212.82ZM310.71 232.85C305.33 227.32 299.95 221.79 294.58 216.26C295.1 222.96 305.43 229.55 310.71 232.85ZM367.52 217.37C371.15 217.54 374.78 217.72 378.42 217.9C374.78 217.72 371.15 217.54 367.52 217.37ZM394.17 217.41C390.4 217.59 386.64 217.76 382.87 217.94C386.64 217.76 390.4 217.59 394.17 217.41ZM320.87 247.81C318.98 248.85 315.8 246.3 313.89 245.57C307.23 243.03 302.7 238.67 296.68 235.66C296.36 238 299.76 240.62 301.5 242.06C304.2 244.29 306.84 246.75 309.87 248.65C314.46 251.53 319.75 252.69 324.5 255.06C324.5 255.39 324.5 255.72 324.5 256.04C317.64 255.64 302.45 245.45 297.83 240.14C295.97 237.99 293.09 234.4 293.41 231.48C298.58 236.47 305.36 240.78 311.9 243.8C314.48 244.99 319 245.83 320.87 247.81ZM354.95 247.06C350.88 246.36 346.81 245.67 342.74 244.97C344.14 243.91 355.09 246.39 357.83 246.65C356.87 246.79 355.91 246.92 354.95 247.06ZM334.32 267.97C331.82 269.38 326.63 266.49 324.18 265.67C312.99 261.94 303.24 256.82 293.87 249.22C288.47 276.25 321.4 285.77 341.01 290.45C348.24 292.18 353.43 293.64 361.21 293.64C361.6 294.08 361.98 294.52 362.37 294.96C357.27 295.56 348.91 293.54 343.89 292.27C328.56 288.42 312.01 284.82 300.09 273.4C294.33 267.88 292.61 262.5 292.61 254.6C292.61 252.38 291.94 248.9 293.41 247.28C300.46 253.1 307.5 258.21 315.97 261.7C321.63 264.02 329.2 265.29 334.32 267.97ZM321.69 247.96C328.71 249.92 335.72 251.88 342.74 253.84C342.19 254.08 341.65 254.31 341.1 254.55C339.76 254.25 338.42 253.96 337.08 253.66C338.82 255.4 341.4 259.24 343.67 260.14C346.7 261.34 352.91 262.31 356.26 262.55C355.5 262.68 354.74 262.82 353.97 262.96C349.77 263.44 338.08 261.02 334.32 259.01C335.25 258.78 336.19 258.56 337.13 258.34C334.39 256.91 333.05 253.92 330.73 252.11C328.55 250.42 324.9 250.15 322.4 249.22C322.16 248.8 321.93 248.38 321.69 247.96ZM115.96 284.79C116.04 284.46 116.12 284.14 116.19 283.82C117.83 283.74 119.46 283.67 121.1 283.59C119.11 283.09 116.43 283.92 114.59 283.05C112.01 281.83 102.34 270.89 99.6 268.15C98.3 266.85 93.12 261.04 91.96 261.36C92.09 257.11 92.22 252.85 92.35 248.6C94.64 249.91 96.33 252.24 98.55 253.75C103.74 257.29 109.15 260.25 114.76 262.87C125.22 267.76 137.47 270.67 148.92 271.98C153.13 272.46 157.32 273.44 161.57 273.81C186.78 276.04 213.85 273.99 237.55 265.81C244.99 263.25 251.99 259.8 258.67 255.64C261.89 253.64 264.44 250.29 267.69 248.53C268.85 250.85 268.23 254.34 268.23 256.94C268.23 259.15 268.45 261.78 267.89 263.94C264.47 277.26 247.75 283.77 236.51 288.23C227.03 291.99 217.04 293.56 207 295.24C203.52 295.82 198.71 297.19 195.22 296.57C190.39 295.71 183.16 286.28 178.15 285.04C173.04 283.79 166.34 284.91 161.08 284.9C146.41 284.88 130.47 286.22 115.96 284.79ZM267.46 250.86C265.76 251.03 264.54 253.43 262.91 254.26C258.6 256.47 252.43 262.26 247.58 262.31C245.75 265.81 238.85 264.97 237.06 267.69C241.35 271.98 245.64 276.26 249.92 280.55C252.42 280.35 254.13 277.83 256.25 276.59C266.98 270.29 267.46 262.45 267.46 250.86ZM367.49 256.98C375.44 257.02 383.39 257.06 391.34 257.1C387.57 259.35 370.1 257.66 365.05 257.4C365.86 257.26 366.67 257.12 367.49 256.98ZM389.96 264.61C388.51 265.51 385.93 265.1 384.12 265.12C380.16 265.16 370.13 266.13 366.97 264.24C368.68 262.89 381.4 264.49 384.58 264.44C386.39 264.41 388.38 263.73 389.96 264.61ZM344.15 270.17C346.89 269.73 360.91 272.22 364.71 272.72C373.77 273.91 383.34 271.62 392.3 273.07C390.05 274.64 385.05 274.23 382.25 274.3C374.98 274.48 367.53 274.11 360.27 273.66C358.78 273.57 357.71 272.83 356.25 272.83C361.33 277.91 366.4 282.98 371.47 288.05C373.18 289.76 375.58 293.34 377.8 294.28C382.14 296.12 393.34 292.46 396.51 295.06C387.06 297.44 372.92 296.62 363.31 294.98C366.58 294.77 369.86 294.55 373.13 294.34C365.41 286.78 357.7 279.22 349.98 271.66C348.09 271.66 345.2 271.91 344.15 270.17ZM358.17 303.06C355.61 304.42 352.43 303.03 349.97 302.54C348.62 302.27 347.14 302.78 345.79 302.51C342.92 301.94 339.89 301.26 336.98 300.57C333.33 299.7 326.27 296.6 323.16 296.52C317.25 295.58 308.43 290.15 303.01 287.31C300.64 286.08 298.99 283.5 296.45 282.65C297.08 285.6 299.28 286.98 301.5 288.82C303.14 290.18 304.7 292.57 306.6 293.54C311.33 295.96 316.28 299.04 321.37 300.74C324.06 301.64 326.86 303.56 329.71 303.38C334.1 304.1 338.81 306.48 342.98 307.65C344 307.94 345.2 307.48 346.23 307.68C348.79 308.19 351.64 309.01 354.21 309.52C356.15 309.91 358.31 309.16 360.26 309.55C361.02 309.7 361.4 310.31 362.16 310.46C366.29 311.29 384.81 311.08 389.03 310.24C387.23 308.6 385.44 306.97 383.65 305.33C379.5 305.33 375.36 305.88 371.73 304.04C377.96 304.04 384.19 304.03 390.43 304.03C389.95 304.54 389.47 305.05 388.99 305.56C390.22 306.8 392.3 309.85 394.01 310.24C397.8 311.11 404.27 307.58 407.26 309.98C399.47 312.32 389.89 312.13 381.78 312.14C361.31 312.18 335.82 309.52 317.6 300.3C309.4 296.15 294.29 289.02 293.27 278.44C295.65 279.81 297.83 282.03 300.03 283.75C303.55 286.49 307.77 288.81 311.77 290.69C326.62 297.68 342.07 300.05 358.17 303.06ZM266.93 280.78C266.37 286.18 259.64 291.67 255.31 294.38C242.07 302.67 228.41 306.18 213.45 309.8C211.01 308.07 208.58 306.35 206.14 304.63C208.42 302.47 219.38 301.45 222.98 300.86C232.65 299.26 243.05 295.27 251.65 290.69C255.35 288.72 259.16 286.45 262.49 283.82C263.81 282.77 265.36 280.82 266.93 280.78ZM130.45 293.11C140.22 291.92 150.76 292.97 160.61 292.97C165.07 292.97 171.29 291.84 175.55 293.12C177.91 293.83 180.22 296.36 182.23 297.75C187.93 301.69 193.46 305.84 199.18 309.76C217.73 322.45 235.9 335.78 254.26 348.69C267.86 358.25 290.13 369.22 292.03 387.39C293.53 401.76 280.86 413.5 266.77 411.94C259.35 411.13 253.88 407.29 247.91 403.21C240.32 398.02 232.37 393.1 224.53 388.25C221.09 386.12 211.46 381.07 209.32 378.36C209.55 376.59 205.84 374.39 204.34 372.89C199.2 367.75 194.05 362.6 188.91 357.46C167.71 336.26 146.52 315.07 125.32 293.87C127.08 293.82 129.25 294.27 130.45 293.11ZM267.69 294.9C268.88 297.11 268.21 300.7 268.21 303.23C268.21 305.43 268.47 308.09 267.89 310.23C265.57 318.84 252.79 329.15 244.31 331.18C237.3 326.23 230.3 321.27 223.29 316.32C232.43 313.27 241.78 311.27 250.39 306.75C254.28 304.71 258.19 302.5 261.68 299.79C263.71 298.23 265.51 296.17 267.69 294.9ZM418.07 300.95C418.24 301.03 418.4 301.38 418.25 301.5C415.4 301.92 406.9 304.55 404.92 302.99C409.31 302.31 413.69 301.63 418.07 300.95ZM358.63 303.07C362.22 303.38 365.8 303.7 369.39 304.01C365.96 304.06 362.53 304.11 359.1 304.16C358.95 303.8 358.79 303.43 358.63 303.07ZM403.52 303.06C401.89 304.84 396.39 305.47 394.64 303.94C397.6 303.64 400.56 303.35 403.52 303.06ZM427.33 314.96C427.42 315.13 427.51 315.29 427.6 315.45C425.18 316.04 420.01 318.54 418.02 317.01C421.12 316.33 424.22 315.65 427.33 314.96ZM371.26 319.94C377.8 319.97 384.35 320 390.9 320.03C387.71 321.71 374.13 322.27 371.26 320.27C371.26 320.16 371.26 320.05 371.26 319.94ZM266.95 327.07C266.5 332.55 260.17 336.61 256.47 340.03C255.21 338.98 253.95 337.94 252.69 336.89C253.99 334.74 260.55 331.56 263.03 329.66C264.3 328.68 265.4 327.03 266.95 327.07ZM441.86 332.02C439.22 333 436.57 333.98 433.93 334.97C433.84 334.76 433.76 334.55 433.68 334.34C436.17 333.4 438.67 332.45 441.16 331.51C441.4 331.68 441.63 331.85 441.86 332.02ZM451.69 336.97C451.77 337.14 451.84 337.31 451.92 337.49C450.05 338.45 448.18 339.41 446.31 340.38C446.03 340.22 445.76 340.06 445.48 339.91C447.55 338.93 449.62 337.95 451.69 336.97ZM268.1 341.16C268.1 343.39 268.1 345.63 268.1 347.86C266.7 346.85 265.31 345.85 263.91 344.84C265.31 343.61 266.7 342.39 268.1 341.16ZM447.47 354.95C447.16 357.14 443.77 357.04 442.38 358.4C446.34 362.54 450.29 366.69 454.25 370.83C457.4 370.28 460.96 366.93 463.06 364.57C463.98 363.54 464.61 361.75 465.84 362.32C462.47 367.87 448.32 378.48 441.99 378.84C442.3 377.34 449.64 374.38 451.68 373.36C447.08 368.76 442.49 364.17 437.89 359.57C434.93 360.21 432.22 361.59 429.46 362.36C428.6 362.6 427.62 362.18 426.75 362.46C424.95 363.05 422.91 363.86 421.04 364.23C420.02 364.43 418.88 364.01 417.87 364.33C417 364.61 416.33 365.36 415.36 365.56C408.44 366.94 401.33 367.09 394.24 367.6C387.64 367.18 380.69 369.81 373.84 368.44C373.09 368.29 372.7 367.68 371.95 367.53C368.05 366.75 363.71 368.28 359.82 367.5C359.06 367.35 358.68 366.75 357.92 366.6C355.85 366.18 353.42 367.13 351.4 366.57C348.07 365.64 344.28 364.71 340.63 364.71C340.16 364.24 339.7 363.78 339.23 363.31C336.81 363.08 334.4 362.84 331.98 362.61C340.32 370.95 348.66 379.29 357 387.62C359.73 387.62 361.71 387.9 364.03 388.54C368.05 389.67 381.89 388.56 386.92 388.56C390.24 388.56 394.95 389.44 398.13 388.54C402.62 387.29 408.03 386.92 412.94 386.61C413.46 386.17 413.99 385.73 414.51 385.29C417.8 386.51 430.44 381.93 434.24 380.7C435.96 380.14 438.7 380.29 439.76 378.74C440.3 378.88 440.85 379.02 441.4 379.16C439.39 380.93 435.88 381.45 433.35 382.22C426.37 384.37 419.41 386.07 412.17 387.24C382.99 391.96 348.72 391.11 321.25 379.89C308.37 374.64 292.68 366.24 292.63 350.45C292.63 347.81 291.78 343.18 293.41 341.17C324.25 367.74 373.24 370.38 412.19 364.82C420.63 363.61 429.11 361.41 437.19 358.82C440.5 357.76 444.09 355.35 447.47 354.95ZM448.41 345.08C444.68 346.69 440.95 348.31 437.22 349.93C437.04 349.64 436.86 349.34 436.68 349.05C438.26 348.21 447.79 344.65 448.41 345.08ZM344.61 347.97C351.98 348.38 359.39 350.07 366.82 350.7C374.54 351.36 382.44 350.83 390.2 350.92C394.93 350.98 400 350.34 404.69 349.81C406.62 349.58 408.74 348.51 410.61 349.21C409.71 351.19 405.33 350.38 403.3 350.7C395.45 351.93 387.23 352.07 379.27 352.63C373.24 350.75 366.91 352.61 360.75 351.61C355.54 350.75 350.55 349.28 345.31 349.28C345.07 348.84 344.84 348.41 344.61 347.97ZM490.02 372.22C490.18 372.44 490.34 372.67 490.49 372.89C488.31 372.89 486.13 372.89 483.95 372.89C483.58 372.84 483.21 372.79 482.85 372.74C484.55 371.46 487.86 371.72 490.02 372.22ZM481.14 372.95C481.69 373.1 482.23 373.25 482.78 373.41C480.04 373.66 471.47 377.6 470.24 376.84C472.1 374.79 478.36 372.83 481.14 372.95ZM327.07 390.7C326.86 392.8 322.85 394.04 321.05 395.15C315.46 398.61 305.51 401.18 298.9 400.48C298.83 398.41 299.5 396.86 299.84 394.87C300.67 390.04 300.39 382.86 298.05 378.51C300.55 377.03 302.72 379.53 304.94 380.8C309.57 383.45 314.28 386 319.32 387.85C321.51 388.65 325.42 389.18 327.07 390.7ZM466.65 378.1C466.88 378.39 467.11 378.69 467.35 378.99C466.32 379.61 465.29 380.22 464.27 380.84C475.75 392.22 487.23 403.6 498.71 414.98C501.06 414.16 507.16 407 507.95 407.25C505.15 413.9 497.39 417.76 491.13 420.23C479.65 424.76 468.27 429.5 456.85 434.18C438.85 441.56 420.49 448.35 402.69 456.21C396.22 459.07 389.75 461.71 383.12 464.19C380.11 465.31 377.33 467.05 374.29 467.97C368.74 469.66 356.69 468.36 350.45 468.36C333.55 468.36 316.62 468.6 299.72 468.33C280.94 449.53 262.16 430.73 243.38 411.93C243.47 411.42 243.56 410.92 243.66 410.41C248.98 413.46 253.44 416.94 259.37 418.8C265.09 420.6 271.54 419.93 277.51 419.93C286.24 419.93 294.96 419.94 303.69 419.93C317.41 419.93 331.12 419.93 344.84 419.93C350.29 419.93 358.9 421.1 363.99 419.84C366.07 419.33 368.18 417.97 370.17 417.14C375.89 414.75 381.71 412.45 387.45 410.12C405.8 402.67 424.13 394.52 442.77 387.82C450.85 384.92 458.45 380.47 466.65 378.1ZM423.68 396.59C421.2 397.87 418.57 398.31 416.01 399.42C411.71 401.28 407.5 403.42 403.19 405.29C401.81 405.88 400.09 405.84 398.71 406.43C397.55 406.93 396.56 408.19 395.25 408.58C391.66 409.65 385.71 411.28 383.18 413.81C394.72 425.34 406.25 436.88 417.78 448.41C420.51 448.23 422.62 446.69 424.9 445.71C427.09 444.76 429.53 444.4 431.72 443.65C434.37 442.74 437.31 440.73 439.86 439.63C442.78 438.36 445.9 437.67 449.02 436.63C452.47 435.48 455.44 432.74 459.14 432.43C471.15 427.39 483.16 422.35 495.17 417.32C483.4 405.39 471.63 393.47 459.86 381.55C447.8 386.56 435.74 391.57 423.68 396.59ZM394.52 398.61C386.48 401.39 378.34 404.69 370.57 408.21C367.78 409.48 364.63 411.3 361.66 411.98C355.96 413.29 342.89 412.09 336.42 412.09C326.45 412.09 316.47 412.09 306.5 412.08C301.7 412.08 296.1 412.85 291.46 411.7C293.17 408.92 297.2 409.15 300.17 408.89C305.47 408.44 313.61 407.39 318.67 405.97C325.26 404.12 332.72 395.81 339.24 394.07C342.23 393.27 346.83 395.2 349.79 395.79C356.96 397.2 365.1 397.78 372.43 397.91C377.56 398 382.72 397.98 387.86 397.95C390.13 397.94 392.74 397.26 394.52 398.61ZM390.9 398.61C386.88 397.81 383.73 399.81 379.91 399.31C378.96 399.19 378.85 398.62 378.02 398.39C375.43 397.67 370.57 398.09 367.99 398.61C370.25 400.87 372.51 403.13 374.77 405.39C380.14 403.13 385.52 400.87 390.9 398.61Z" fill="#5987fd" fill-rule="evenodd" stroke="#5987fd" stroke-width="0.25" stroke-linejoin="round"/>
</svg>